# Blender v2.91.0 OBJ File: 'test.blend'
# www.blender.org
mtllib Bow.mtl
o Bow
v -2.006144 0.109706 5.767488
v -1.601568 0.169805 6.516915
v -1.601262 0.176036 6.516915
v -2.005485 0.123219 5.767488
v -1.598595 0.181678 6.516915
v -1.999702 0.135450 5.767488
v -1.593972 0.185870 6.516915
v -1.989680 0.144536 5.767488
v -1.588099 0.187973 6.516915
v -1.976945 0.149097 5.767488
v -1.581867 0.187668 6.516915
v -1.963432 0.148435 5.767488
v -1.576225 0.185001 6.516915
v -1.951201 0.142655 5.767488
v -1.572034 0.180378 6.516915
v -1.942116 0.132633 5.767488
v -1.569930 0.174504 6.516915
v -1.937554 0.119895 5.767488
v -1.570235 0.168270 6.516915
v -1.938216 0.106382 5.767488
v -1.572902 0.162631 6.516915
v -1.943996 0.094151 5.767488
v -1.577525 0.158439 6.516915
v -1.954019 0.085065 5.767488
v -1.583399 0.156335 6.516915
v -1.966756 0.080504 5.767488
v -1.589631 0.156641 6.516915
v -1.980267 0.081166 5.767488
v -1.595272 0.159308 6.516915
v -1.992497 0.086947 5.767488
v -1.599464 0.163928 6.516915
v -2.001586 0.096969 5.767488
v -2.218143 0.062301 4.017512
v -2.321442 0.044755 4.600838
v -2.327601 0.061955 4.600838
v -2.223551 0.077411 4.017512
v -2.207362 0.050413 4.017512
v -2.309172 0.031221 4.600838
v -2.192854 0.043554 4.017512
v -2.292656 0.023414 4.600838
v -2.176824 0.042772 4.017512
v -2.274408 0.022521 4.600838
v -2.161714 0.048180 4.017512
v -2.257210 0.028680 4.600838
v -2.149825 0.058960 4.017512
v -2.243674 0.040951 4.600838
v -2.142967 0.073469 4.017512
v -2.235866 0.057467 4.600838
v -2.142181 0.089499 4.017512
v -2.234973 0.075715 4.600838
v -2.147592 0.104608 4.017512
v -2.241132 0.092915 4.600838
v -2.158372 0.116497 4.017512
v -2.253403 0.106449 4.600838
v -2.172881 0.123356 4.017512
v -2.269922 0.114255 4.600838
v -2.188911 0.124141 4.017512
v -2.288167 0.115149 4.600838
v -2.204021 0.118730 4.017512
v -2.305368 0.108990 4.600838
v -2.215909 0.107950 4.017512
v -2.318901 0.096719 4.600838
v -2.222768 0.093441 4.017512
v -2.326708 0.080203 4.600838
v -2.218616 0.062015 5.184163
v -2.224099 0.077330 5.184163
v -2.207689 0.049963 5.184163
v -2.192980 0.043011 5.184163
v -2.176730 0.042216 5.184163
v -2.161415 0.047700 5.184163
v -2.149363 0.058627 5.184163
v -2.142411 0.073335 5.184163
v -2.141616 0.089583 5.184163
v -2.147100 0.104900 5.184163
v -2.158026 0.116950 5.184163
v -2.172735 0.123905 5.184163
v -2.188983 0.124700 5.184163
v -2.204300 0.119216 5.184163
v -2.216352 0.108289 5.184163
v -2.223305 0.093580 5.184163
v -1.592132 0.171206 2.669301
v -2.005156 0.109853 3.434190
v -2.004516 0.122968 3.434190
v -1.591845 0.177037 2.669301
v -1.998904 0.134841 3.434190
v -1.589352 0.182317 2.669301
v -1.989175 0.143659 3.434190
v -1.585025 0.186240 2.669301
v -1.976813 0.148086 3.434190
v -1.579529 0.188207 2.669301
v -1.963698 0.147443 3.434190
v -1.573696 0.187923 2.669301
v -1.951825 0.141834 3.434190
v -1.568415 0.185427 2.669301
v -1.943004 0.132105 3.434190
v -1.564495 0.181099 2.669301
v -1.938579 0.119743 3.434190
v -1.562525 0.175604 2.669301
v -1.939220 0.106628 3.434190
v -1.562812 0.169771 2.669301
v -1.944832 0.094755 3.434190
v -1.565306 0.164493 2.669301
v -1.954561 0.085934 3.434190
v -1.569633 0.160570 2.669301
v -1.966923 0.081510 3.434190
v -1.575131 0.158600 2.669301
v -1.980038 0.082150 3.434190
v -1.580961 0.158887 2.669301
v -1.991911 0.087762 3.434190
v -1.586243 0.161383 2.669301
v -2.000732 0.097491 3.434190
v -1.590162 0.165708 2.669301
v -1.595219 0.178830 6.516915
v -1.587021 0.180716 6.516915
v -1.578632 0.181294 6.516915
v -1.594830 0.170805 6.516915
v -1.585749 0.172154 6.516915
v -1.576669 0.173503 6.516915
v -1.592869 0.163011 6.516915
v -1.584477 0.163593 6.516915
v -1.576282 0.165475 6.516915
v -1.583989 0.164852 2.669301
v -1.576140 0.165394 2.669301
v -1.568469 0.167157 2.669301
v -1.585827 0.172143 2.669301
v -1.577330 0.173405 2.669301
v -1.568833 0.174667 2.669301
v -1.586188 0.179653 2.669301
v -1.578520 0.181416 2.669301
v -1.570668 0.181959 2.669301
v -1.552796 0.217570 4.724612
v -1.552904 0.215373 4.724612
v -1.580084 0.170626 2.695152
v -1.579975 0.172820 2.695152
v -1.553843 0.213388 4.724612
v -1.581023 0.168641 2.695152
v -1.555470 0.211912 4.724612
v -1.582650 0.167166 2.695152
v -1.557540 0.211170 4.724612
v -1.584720 0.166424 2.695152
v -1.559734 0.211279 4.724612
v -1.586914 0.166532 2.695152
v -1.561719 0.212218 4.724612
v -1.588899 0.167472 2.695152
v -1.563195 0.213844 4.724612
v -1.590375 0.169098 2.695152
v -1.563937 0.215915 4.724612
v -1.591117 0.171165 2.695152
v -1.563829 0.218109 4.724612
v -1.591008 0.173359 2.695152
v -1.562889 0.220094 4.724612
v -1.590069 0.175347 2.695152
v -1.561263 0.221570 4.724612
v -1.588443 0.176823 2.695152
v -1.559195 0.222311 4.724612
v -1.586374 0.177562 2.695152
v -1.556998 0.222203 4.724612
v -1.584178 0.177456 2.695152
v -1.555013 0.221264 4.724612
v -1.582193 0.176517 2.695152
v -1.553537 0.219638 4.724612
v -1.580717 0.174888 2.695152
v -1.585181 0.174600 6.495637
v -1.584442 0.172531 6.495637
v -1.586657 0.176229 6.495637
v -1.588644 0.177165 6.495637
v -1.590838 0.177273 6.495637
v -1.592906 0.176532 6.495637
v -1.594536 0.175058 6.495637
v -1.595471 0.173071 6.495637
v -1.595580 0.170877 6.495637
v -1.594838 0.168809 6.495637
v -1.593365 0.167179 6.495637
v -1.591377 0.166241 6.495637
v -1.589184 0.166135 6.495637
v -1.587115 0.166874 6.495637
v -1.585486 0.168350 6.495637
v -1.584547 0.170338 6.495637
v -1.581568 0.171098 2.695152
v -1.583979 0.169380 2.695152
v -1.586632 0.168060 2.695152
v -1.582775 0.173657 2.695152
v -1.585547 0.171993 2.695152
v -1.588318 0.170332 2.695152
v -1.584463 0.175925 2.695152
v -1.587113 0.174606 2.695152
v -1.589527 0.172890 2.695152
v -1.586463 0.173717 6.495637
v -1.589270 0.174660 6.495637
v -1.592192 0.175152 6.495637
v -1.586875 0.170921 6.495637
v -1.590011 0.171704 6.495637
v -1.593147 0.172487 6.495640
v -1.587830 0.168256 6.495640
v -1.590749 0.168749 6.495637
v -1.593558 0.169688 6.495637
vt 0.000000 0.000000
vt 0.000000 0.000000
vt 0.000000 0.000000
vt 0.000000 0.000000
vt 0.000000 0.000000
vt 0.000000 0.000000
vt 0.000000 0.000000
vt 0.000000 0.000000
vt 0.000000 0.000000
vt 0.000000 0.000000
vt 0.000000 0.000000
vt 0.000000 0.000000
vt 0.000000 0.000000
vt 0.000000 0.000000
vt 0.000000 0.000000
vt 0.000000 0.000000
vt 0.000000 0.000000
vt 0.000000 0.000000
vt 0.000000 0.000000
vt 0.000000 0.000000
vt 0.000000 0.000000
vt 0.000000 0.000000
vt 0.000000 0.000000
vt 0.000000 0.000000
vt 0.000000 0.000000
vt 0.000000 0.000000
vt 0.000000 0.000000
vt 0.000000 0.000000
vt 0.000000 0.000000
vt 0.000000 0.000000
vt 0.000000 0.000000
vt 0.000000 0.000000
vt 0.000000 0.000000
vt 0.000000 0.000000
vt 0.000000 0.000000
vt 0.000000 0.000000
vt 0.000000 0.000000
vt 0.000000 0.000000
vt 0.000000 0.000000
vt 0.000000 0.000000
vt 0.000000 0.000000
vt 0.000000 0.000000
vt 0.000000 0.000000
vt 0.000000 0.000000
vt 0.000000 0.000000
vt 0.000000 0.000000
vt 0.000000 0.000000
vt 0.000000 0.000000
vt 0.000000 0.000000
vt 0.000000 0.000000
vt 0.000000 0.000000
vt 0.000000 0.000000
vt 0.000000 0.000000
vt 0.000000 0.000000
vt 0.000000 0.000000
vt 0.000000 0.000000
vt 0.000000 0.000000
vt 0.000000 0.000000
vt 0.000000 0.000000
vt 0.000000 0.000000
vt 0.000000 0.000000
vt 0.000000 0.000000
vt 0.000000 0.000000
vt 0.000000 0.000000
vt 0.000000 0.000000
vt 0.000000 0.000000
vt 0.000000 0.000000
vt 0.000000 0.000000
vt 0.000000 0.000000
vt 0.000000 0.000000
vt 0.000000 0.000000
vt 0.000000 0.000000
vt 0.000000 0.000000
vt 0.000000 0.000000
vt 0.000000 0.000000
vt 0.000000 0.000000
vt 0.000000 0.000000
vt 0.000000 0.000000
vt 0.000000 0.000000
vt 0.000000 0.000000
vt 0.000000 0.000000
vt 0.000000 0.000000
vt 0.000000 0.000000
vt 0.000000 0.000000
vt 0.000000 0.000000
vt 0.000000 0.000000
vt 0.000000 0.000000
vt 0.000000 0.000000
vt 0.000000 0.000000
vt 0.000000 0.000000
vt 0.000000 0.000000
vt 0.000000 0.000000
vt 0.000000 0.000000
vt 0.000000 0.000000
vt 0.000000 0.000000
vt 0.000000 0.000000
vt 0.000000 0.000000
vt 0.000000 0.000000
vt 0.000000 0.000000
vt 0.000000 0.000000
vt 0.000000 0.000000
vt 0.000000 0.000000
vt 0.000000 0.000000
vt 0.000000 0.000000
vt 0.000000 0.000000
vt 0.000000 0.000000
vt 0.000000 0.000000
vt 0.000000 0.000000
vt 0.000000 0.000000
vt 0.000000 0.000000
vt 0.000000 0.000000
vt 0.000000 0.000000
vt 0.000000 0.000000
vt 0.000000 0.000000
vt 0.000000 0.000000
vt 0.000000 0.000000
vt 0.000000 0.000000
vt 0.000000 0.000000
vt 0.000000 0.000000
vt 0.000000 0.000000
vt 0.000000 0.000000
vt 0.000000 0.000000
vt 0.000000 0.000000
vt 0.000000 0.000000
vt 0.000000 0.000000
vt 0.000000 0.000000
vt 0.000000 0.000000
vt 0.000000 0.000000
vt 0.000000 0.000000
vt 0.000000 0.000000
vt 0.000000 0.000000
vt 0.000000 0.000000
vt 0.000000 0.000000
vt 0.000000 0.000000
vt 0.000000 0.000000
vt 0.000000 0.000000
vt 0.000000 0.000000
vt 0.000000 0.000000
vt 0.000000 0.000000
vt 0.000000 0.000000
vt 0.000000 0.000000
vt 0.000000 0.000000
vt 0.000000 0.000000
vt 0.000000 0.000000
vt 0.000000 0.000000
vt 0.000000 0.000000
vt 0.000000 0.000000
vt 0.000000 0.000000
vt 0.000000 0.000000
vt 0.000000 0.000000
vt 0.000000 0.000000
vt 0.000000 0.000000
vt 0.000000 0.000000
vt 0.000000 0.000000
vt 0.000000 0.000000
vt 0.000000 0.000000
vt 0.000000 0.000000
vt 0.000000 0.000000
vt 0.000000 0.000000
vt 0.000000 0.000000
vt 0.000000 0.000000
vt 0.000000 0.000000
vt 0.000000 0.000000
vt 0.000000 0.000000
vt 0.000000 0.000000
vt 0.000000 0.000000
vt 0.000000 0.000000
vt 0.000000 0.000000
vt 0.000000 0.000000
vt 0.000000 0.000000
vt 0.000000 0.000000
vt 0.000000 0.000000
vt 0.000000 0.000000
vt 0.000000 0.000000
vt 0.000000 0.000000
vt 0.000000 0.000000
vt 0.000000 0.000000
vt 0.000000 0.000000
vt 0.000000 0.000000
vt 0.000000 0.000000
vt 0.000000 0.000000
vt 0.000000 0.000000
vt 0.000000 0.000000
vt 0.000000 0.000000
vt 0.000000 0.000000
vt 0.000000 0.000000
vt 0.000000 0.000000
vt 0.000000 0.000000
vt 0.000000 0.000000
vt 0.000000 0.000000
vt 0.000000 0.000000
vt 0.000000 0.000000
vt 0.000000 0.000000
vt 0.000000 0.000000
vt 0.000000 0.000000
vt 0.000000 0.000000
vn -0.8806 0.0430 0.4719
vn -0.8221 0.3887 0.4160
vn -0.6409 0.7068 0.2994
vn -0.3345 0.9340 0.1251
vn 0.0488 0.9958 -0.0770
vn 0.4131 0.8740 -0.2561
vn 0.6858 0.6218 -0.3783
vn 0.8466 0.3032 -0.4374
vn 0.8982 -0.0440 -0.4374
vn 0.8369 -0.3956 -0.3783
vn 0.6493 -0.7162 -0.2561
vn 0.3362 -0.9387 -0.0770
vn -0.0486 -0.9910 0.1251
vn -0.4077 -0.8626 0.2994
vn -0.6736 -0.6109 0.4160
vn -0.8301 -0.2971 0.4719
vn -0.9271 -0.3319 -0.1742
vn -0.7325 -0.6642 -0.1497
vn -0.4251 -0.8992 -0.1038
vn -0.0488 -0.9979 -0.0428
vn 0.3370 -0.9412 0.0237
vn 0.6693 -0.7382 0.0849
vn 0.8963 -0.4237 0.1311
vn 0.9866 -0.0483 0.1558
vn 0.9300 0.3330 0.1558
vn 0.7344 0.6659 0.1311
vn 0.4258 0.9008 0.0849
vn 0.0489 0.9985 0.0237
vn -0.3368 0.9406 -0.0428
vn -0.6681 0.7368 -0.1038
vn -0.8939 0.4226 -0.1497
vn -0.9835 0.0481 -0.1742
vn -0.8829 -0.3160 0.3474
vn -0.7064 -0.6405 0.3012
vn -0.4178 -0.8839 0.2102
vn -0.0487 -0.9954 0.0829
vn 0.3365 -0.9398 -0.0594
vn 0.6597 -0.7276 -0.1879
vn 0.8678 -0.4102 -0.2805
vn 0.9436 -0.0462 -0.3277
vn 0.8895 0.3185 -0.3277
vn 0.7111 0.6447 -0.2805
vn 0.4198 0.8880 -0.1880
vn 0.0488 0.9970 -0.0594
vn -0.3360 0.9382 0.0829
vn -0.6567 0.7243 0.2102
vn -0.8621 0.4075 0.3012
vn -0.9366 0.0457 0.3474
vn -0.8805 0.0431 -0.4720
vn -0.8222 0.3884 -0.4161
vn -0.6408 0.7070 -0.2992
vn -0.3345 0.9341 -0.1247
vn 0.0487 0.9958 0.0775
vn 0.4129 0.8738 0.2568
vn 0.6856 0.6215 0.3791
vn 0.8463 0.3030 0.4382
vn 0.8978 -0.0440 0.4382
vn 0.8366 -0.3954 0.3791
vn 0.6492 -0.7160 0.2568
vn 0.3361 -0.9386 0.0775
vn -0.0485 -0.9910 -0.1247
vn -0.4077 -0.8627 -0.2993
vn -0.6737 -0.6107 -0.4161
vn -0.8300 -0.2972 -0.4720
vn -0.9837 0.0481 0.1733
vn -0.8940 0.4226 0.1488
vn -0.6681 0.7369 0.1028
vn -0.3368 0.9406 0.0419
vn 0.0489 0.9985 -0.0247
vn 0.4258 0.9007 -0.0858
vn 0.7343 0.6658 -0.1321
vn 0.9298 0.3329 -0.1567
vn 0.9865 -0.0483 -0.1567
vn 0.8962 -0.4236 -0.1321
vn 0.6692 -0.7381 -0.0858
vn 0.3370 -0.9412 -0.0247
vn -0.0488 -0.9979 0.0419
vn -0.4251 -0.8993 0.1028
vn -0.7326 -0.6642 0.1488
vn -0.9272 -0.3320 0.1733
vn -0.9364 0.0461 -0.3479
vn -0.8619 0.4074 -0.3019
vn -0.6565 0.7242 -0.2109
vn -0.3360 0.9381 -0.0837
vn 0.0489 0.9971 0.0587
vn 0.4197 0.8881 0.1872
vn 0.7112 0.6449 0.2798
vn 0.8897 0.3186 0.3271
vn 0.9439 -0.0462 0.3271
vn 0.8680 -0.4103 0.2798
vn 0.6598 -0.7277 0.1872
vn 0.3364 -0.9399 0.0586
vn -0.0489 -0.9953 -0.0836
vn -0.4178 -0.8837 -0.2109
vn -0.7063 -0.6404 -0.3019
vn -0.8826 -0.3163 -0.3479
vn 0.0000 0.0000 1.0000
vn 0.0001 0.0000 1.0000
vn -0.0001 0.0000 1.0000
vn 0.0000 0.0000 -1.0000
vn 0.0001 0.0000 -1.0000
vn 0.9987 -0.0487 -0.0123
vn 0.9041 -0.4273 -0.0028
vn 0.9041 -0.4274 -0.0029
vn 0.6716 -0.7409 0.0076
vn 0.6716 -0.7409 0.0074
vn 0.3370 -0.9414 0.0164
vn 0.3370 -0.9414 0.0163
vn -0.0487 -0.9986 0.0226
vn -0.0487 -0.9986 0.0224
vn -0.0488 -0.9986 0.0223
vn -0.4276 -0.9036 0.0256
vn -0.7403 -0.6718 0.0247
vn -0.9411 -0.3375 0.0200
vn -0.9987 0.0491 0.0123
vn -0.9040 0.4275 0.0027
vn -0.6717 0.7408 -0.0075
vn -0.6717 0.7408 -0.0074
vn -0.6717 0.7408 -0.0076
vn -0.3369 0.9414 -0.0162
vn 0.0485 0.9986 -0.0227
vn 0.4273 0.9038 -0.0256
vn 0.4273 0.9037 -0.0255
vn 0.4273 0.9038 -0.0255
vn 0.7406 0.6715 -0.0247
vn 0.9411 0.3375 -0.0200
vn 0.9410 0.3373 0.0255
vn 0.9410 0.3373 0.0254
vn 0.7404 0.6714 0.0303
vn 0.4272 0.9036 0.0310
vn 0.4273 0.9036 0.0308
vn 0.4273 0.9036 0.0309
vn 0.0492 0.9984 0.0263
vn -0.3371 0.9413 0.0183
vn -0.3370 0.9413 0.0181
vn -0.3370 0.9413 0.0180
vn -0.3370 0.9413 0.0182
vn -0.6713 0.7412 0.0069
vn -0.9041 0.4273 -0.0051
vn -0.9041 0.4273 -0.0052
vn -0.9987 0.0491 -0.0166
vn -0.9987 0.0491 -0.0167
vn -0.9412 -0.3369 -0.0255
vn -0.9412 -0.3369 -0.0254
vn -0.7405 -0.6713 -0.0302
vn -0.7406 -0.6713 -0.0301
vn -0.4272 -0.9036 -0.0306
vn -0.0487 -0.9985 -0.0263
vn 0.3370 -0.9413 -0.0178
vn 0.3370 -0.9414 -0.0177
vn 0.3370 -0.9413 -0.0177
vn 0.6718 -0.7407 -0.0068
vn 0.9040 -0.4275 0.0053
vn 0.9987 -0.0486 0.0166
vn -0.0001 0.0000 -1.0000
vn 0.0006 0.0000 1.0000
vn 0.0001 0.0001 1.0000
vn 0.0000 0.0003 1.0000
vn -0.0003 0.0000 1.0000
vn -0.0001 0.0002 1.0000
vn 0.0003 0.0002 1.0000
vn 0.0001 0.0002 1.0000
vn 0.0002 0.0001 1.0000
vn -0.0002 0.0000 1.0000
vn 0.0002 -0.0004 1.0000
vn -0.0000 -0.0001 1.0000
vn -0.0001 0.0001 1.0000
vn -0.0005 -0.0001 1.0000
vn 0.0000 -0.0002 1.0000
vn -0.0001 -0.0002 1.0000
vn 0.0002 0.0000 1.0000
g Bow_Bow_Bow
usemtl Bow
s 1
f 1/1/1 2/2/1 3/3/1 4/4/1
f 4/4/2 3/3/2 5/5/2 6/6/2
f 6/6/3 5/5/3 7/7/3 8/8/3
f 8/8/4 7/7/4 9/9/4 10/10/4
f 10/10/5 9/9/5 11/11/5 12/12/5
f 12/12/6 11/11/6 13/13/6 14/14/6
f 14/14/7 13/13/7 15/15/7 16/16/7
f 16/16/8 15/15/8 17/17/8 18/18/8
f 18/18/9 17/17/9 19/19/9 20/20/9
f 20/20/10 19/19/10 21/21/10 22/22/10
f 22/22/11 21/21/11 23/23/11 24/24/11
f 24/24/12 23/23/12 25/25/12 26/26/12
f 26/26/13 25/25/13 27/27/13 28/28/13
f 28/28/14 27/27/14 29/29/14 30/30/14
f 30/30/15 29/29/15 31/31/15 32/32/15
f 32/32/16 31/31/16 2/2/16 1/1/16
f 33/33/17 34/34/17 35/35/17 36/36/17
f 37/37/18 38/38/18 34/34/18 33/33/18
f 39/39/19 40/40/19 38/38/19 37/37/19
f 41/41/20 42/42/20 40/40/20 39/39/20
f 43/43/21 44/44/21 42/42/21 41/41/21
f 45/45/22 46/46/22 44/44/22 43/43/22
f 47/47/23 48/48/23 46/46/23 45/45/23
f 49/49/24 50/50/24 48/48/24 47/47/24
f 51/51/25 52/52/25 50/50/25 49/49/25
f 53/53/26 54/54/26 52/52/26 51/51/26
f 55/55/27 56/56/27 54/54/27 53/53/27
f 57/57/28 58/58/28 56/56/28 55/55/28
f 59/59/29 60/60/29 58/58/29 57/57/29
f 61/61/30 62/62/30 60/60/30 59/59/30
f 63/63/31 64/64/31 62/62/31 61/61/31
f 36/36/32 35/35/32 64/64/32 63/63/32
f 65/65/33 32/32/33 1/1/33 66/66/33
f 67/67/34 30/30/34 32/32/34 65/65/34
f 68/68/35 28/28/35 30/30/35 67/67/35
f 69/69/36 26/26/36 28/28/36 68/68/36
f 70/70/37 24/24/37 26/26/37 69/69/37
f 71/71/38 22/22/38 24/24/38 70/70/38
f 72/72/39 20/20/39 22/22/39 71/71/39
f 73/73/40 18/18/40 20/20/40 72/72/40
f 74/74/41 16/16/41 18/18/41 73/73/41
f 75/75/42 14/14/42 16/16/42 74/74/42
f 76/76/43 12/12/43 14/14/43 75/75/43
f 77/77/44 10/10/44 12/12/44 76/76/44
f 78/78/45 8/8/45 10/10/45 77/77/45
f 79/79/46 6/6/46 8/8/46 78/78/46
f 80/80/47 4/4/47 6/6/47 79/79/47
f 66/66/48 1/1/48 4/4/48 80/80/48
f 81/81/49 82/82/49 83/83/49 84/84/49
f 84/84/50 83/83/50 85/85/50 86/86/50
f 86/86/51 85/85/51 87/87/51 88/88/51
f 88/88/52 87/87/52 89/89/52 90/90/52
f 90/90/53 89/89/53 91/91/53 92/92/53
f 92/92/54 91/91/54 93/93/54 94/94/54
f 94/94/55 93/93/55 95/95/55 96/96/55
f 96/96/56 95/95/56 97/97/56 98/98/56
f 98/98/57 97/97/57 99/99/57 100/100/57
f 100/100/58 99/99/58 101/101/58 102/102/58
f 102/102/59 101/101/59 103/103/59 104/104/59
f 104/104/60 103/103/60 105/105/60 106/106/60
f 106/106/61 105/105/61 107/107/61 108/108/61
f 108/108/62 107/107/62 109/109/62 110/110/62
f 110/110/63 109/109/63 111/111/63 112/112/63
f 112/112/64 111/111/64 82/82/64 81/81/64
f 35/35/65 66/66/65 80/80/65 64/64/65
f 64/64/66 80/80/66 79/79/66 62/62/66
f 62/62/67 79/79/67 78/78/67 60/60/67
f 60/60/68 78/78/68 77/77/68 58/58/68
f 58/58/69 77/77/69 76/76/69 56/56/69
f 56/56/70 76/76/70 75/75/70 54/54/70
f 54/54/71 75/75/71 74/74/71 52/52/71
f 52/52/72 74/74/72 73/73/72 50/50/72
f 50/50/73 73/73/73 72/72/73 48/48/73
f 48/48/74 72/72/74 71/71/74 46/46/74
f 46/46/75 71/71/75 70/70/75 44/44/75
f 44/44/76 70/70/76 69/69/76 42/42/76
f 42/42/77 69/69/77 68/68/77 40/40/77
f 40/40/78 68/68/78 67/67/78 38/38/78
f 38/38/79 67/67/79 65/65/79 34/34/79
f 34/34/80 65/65/80 66/66/80 35/35/80
f 82/82/81 36/36/81 63/63/81 83/83/81
f 83/83/82 63/63/82 61/61/82 85/85/82
f 85/85/83 61/61/83 59/59/83 87/87/83
f 87/87/84 59/59/84 57/57/84 89/89/84
f 89/89/85 57/57/85 55/55/85 91/91/85
f 91/91/86 55/55/86 53/53/86 93/93/86
f 93/93/87 53/53/87 51/51/87 95/95/87
f 95/95/88 51/51/88 49/49/88 97/97/88
f 97/97/89 49/49/89 47/47/89 99/99/89
f 99/99/90 47/47/90 45/45/90 101/101/90
f 101/101/91 45/45/91 43/43/91 103/103/91
f 103/103/92 43/43/92 41/41/92 105/105/92
f 105/105/93 41/41/93 39/39/93 107/107/93
f 107/107/94 39/39/94 37/37/94 109/109/94
f 109/109/95 37/37/95 33/33/95 111/111/95
f 111/111/96 33/33/96 36/36/96 82/82/96
f 3/3/97 113/113/97 7/7/97 5/5/98
f 113/113/97 114/114/97 9/9/97 7/7/97
f 114/114/97 115/115/99 11/11/97 9/9/97
f 115/115/99 15/15/99 13/13/99 11/11/97
f 2/2/97 116/116/97 113/113/97 3/3/97
f 116/116/97 117/117/97 114/114/97 113/113/97
f 117/117/97 118/118/97 115/115/99 114/114/97
f 118/118/97 17/17/97 15/15/99 115/115/99
f 31/31/99 119/119/97 116/116/97 2/2/97
f 119/119/97 120/120/97 117/117/97 116/116/97
f 120/120/97 121/121/97 118/118/97 117/117/97
f 121/121/97 19/19/97 17/17/97 118/118/97
f 29/29/99 27/27/97 119/119/97 31/31/99
f 27/27/97 25/25/97 120/120/97 119/119/97
f 25/25/97 23/23/99 121/121/97 120/120/97
f 23/23/99 21/21/97 19/19/97 121/121/97
f 112/112/100 122/122/100 108/108/100 110/110/100
f 122/122/100 123/123/100 106/106/100 108/108/100
f 123/123/100 124/124/100 104/104/100 106/106/100
f 124/124/100 100/100/100 102/102/100 104/104/100
f 81/81/100 125/125/100 122/122/100 112/112/100
f 125/125/100 126/126/100 123/123/100 122/122/100
f 126/126/100 127/127/100 124/124/100 123/123/100
f 127/127/100 98/98/100 100/100/100 124/124/100
f 84/84/100 128/128/100 125/125/100 81/81/100
f 128/128/100 129/129/100 126/126/100 125/125/100
f 129/129/100 130/130/100 127/127/100 126/126/100
f 130/130/100 96/96/100 98/98/100 127/127/100
f 86/86/100 88/88/100 128/128/100 84/84/100
f 88/88/100 90/90/100 129/129/100 128/128/100
f 90/90/100 92/92/100 130/130/100 129/129/100
f 92/92/100 94/94/101 96/96/100 130/130/100
g Bow_Bow_String
usemtl String
f 131/131/102 132/132/102 133/133/102 134/134/102
f 132/132/103 135/135/103 136/136/104 133/133/103
f 135/135/105 137/137/106 138/138/106 136/136/105
f 137/137/107 139/139/108 140/140/108 138/138/107
f 139/139/109 141/141/110 142/142/111 140/140/109
f 141/141/112 143/143/112 144/144/112 142/142/112
f 143/143/113 145/145/113 146/146/113 144/144/113
f 145/145/114 147/147/114 148/148/114 146/146/114
f 147/147/115 149/149/115 150/150/115 148/148/115
f 149/149/116 151/151/116 152/152/116 150/150/116
f 151/151/117 153/153/118 154/154/118 152/152/119
f 153/153/120 155/155/120 156/156/120 154/154/120
f 155/155/121 157/157/121 158/158/121 156/156/121
f 157/157/122 159/159/123 160/160/124 158/158/122
f 159/159/125 161/161/125 162/162/125 160/160/125
f 161/161/126 131/131/126 134/134/126 162/162/126
f 163/163/127 164/164/128 131/131/128 161/161/127
f 165/165/129 163/163/129 161/161/129 159/159/129
f 166/166/130 165/165/131 159/159/131 157/157/132
f 167/167/133 166/166/133 157/157/133 155/155/133
f 168/168/134 167/167/135 155/155/136 153/153/137
f 169/169/138 168/168/138 153/153/138 151/151/138
f 170/170/139 169/169/140 151/151/140 149/149/139
f 171/171/141 170/170/142 149/149/142 147/147/141
f 172/172/143 171/171/144 147/147/144 145/145/143
f 173/173/145 172/172/146 145/145/146 143/143/145
f 174/174/147 173/173/147 143/143/147 141/141/147
f 175/175/148 174/174/148 141/141/148 139/139/148
f 176/176/149 175/175/150 139/139/151 137/137/149
f 177/177/152 176/176/152 137/137/152 135/135/152
f 178/178/153 177/177/153 135/135/153 132/132/153
f 164/164/154 178/178/154 132/132/154 131/131/154
f 134/134/100 133/133/100 136/136/100 179/179/100
f 179/179/100 136/136/100 138/138/100 180/180/100
f 180/180/100 138/138/100 140/140/100 181/181/100
f 181/181/100 140/140/100 142/142/100 144/144/100
f 162/162/100 134/134/100 179/179/100 182/182/100
f 182/182/100 179/179/100 180/180/100 183/183/100
f 183/183/100 180/180/100 181/181/100 184/184/100
f 184/184/100 181/181/100 144/144/100 146/146/100
f 160/160/100 162/162/100 182/182/100 185/185/100
f 185/185/100 182/182/100 183/183/100 186/186/100
f 186/186/100 183/183/100 184/184/100 187/187/100
f 187/187/100 184/184/100 146/146/100 148/148/100
f 158/158/100 160/160/100 185/185/100 156/156/100
f 156/156/100 185/185/100 186/186/100 154/154/100
f 154/154/100 186/186/100 187/187/100 152/152/100
f 152/152/100 187/187/100 148/148/100 150/150/155
f 164/164/98 163/163/156 165/165/99 188/188/98
f 188/188/98 165/165/99 166/166/99 189/189/157
f 189/189/157 166/166/99 167/167/99 190/190/158
f 190/190/158 167/167/99 168/168/159 169/169/160
f 178/178/161 164/164/98 188/188/98 191/191/162
f 191/191/162 188/188/98 189/189/157 192/192/163
f 192/192/163 189/189/157 190/190/158 193/193/164
f 193/193/164 190/190/158 169/169/160 170/170/159
f 177/177/98 178/178/161 191/191/162 194/194/165
f 194/194/165 191/191/162 192/192/163 195/195/166
f 195/195/166 192/192/163 193/193/164 196/196/167
f 196/196/167 193/193/164 170/170/159 171/171/168
f 176/176/169 177/177/98 194/194/165 175/175/170
f 175/175/170 194/194/165 195/195/166 174/174/98
f 174/174/98 195/195/166 196/196/167 173/173/171
f 173/173/171 196/196/167 171/171/168 172/172/97
