# Blender v2.91.0 OBJ File: 'test.blend'
# www.blender.org
mtllib Arrow.001.mtl
o Arrow.001
v -8.089074 -0.742779 4.618897
v -8.088170 -0.748870 4.620121
v -10.634086 -1.127053 4.620121
v -10.634991 -1.120962 4.618897
v -8.087402 -0.754035 4.623609
v -10.633319 -1.132217 4.623609
v -8.086890 -0.757484 4.628830
v -10.632807 -1.135667 4.628830
v -8.086710 -0.758695 4.634988
v -10.632627 -1.136878 4.634984
v -8.086890 -0.757484 4.641145
v -10.632807 -1.135667 4.641142
v -8.087402 -0.754035 4.646364
v -10.633319 -1.132217 4.646363
v -8.088170 -0.748870 4.649851
v -10.634086 -1.127053 4.649851
v -8.089074 -0.742779 4.651078
v -10.634991 -1.120962 4.651078
v -8.089979 -0.736688 4.649851
v -10.635896 -1.114871 4.649851
v -8.090746 -0.731527 4.646364
v -10.636662 -1.109710 4.646363
v -8.091258 -0.728077 4.641145
v -10.637175 -1.106260 4.641142
v -8.091438 -0.726864 4.634988
v -10.637355 -1.105046 4.634984
v -8.091258 -0.728077 4.628830
v -10.637175 -1.106260 4.628830
v -8.090746 -0.731527 4.623609
v -10.636662 -1.109710 4.623609
v -8.089979 -0.736688 4.620121
v -10.635896 -1.114871 4.620121
v -10.654943 -1.123926 4.664024
v -10.653310 -1.134917 4.661814
v -10.658884 -1.097391 4.623872
v -10.659209 -1.095204 4.634987
v -10.653310 -1.134917 4.608158
v -10.654943 -1.123926 4.605947
v -10.651925 -1.144238 4.655519
v -10.651001 -1.150464 4.646100
v -10.658884 -1.097391 4.646100
v -10.657959 -1.103616 4.655519
v -10.656575 -1.112934 4.608158
v -10.650676 -1.152650 4.634987
v -10.651001 -1.150464 4.623872
v -10.656575 -1.112934 4.661814
v -10.657959 -1.103616 4.614452
v -10.651925 -1.144238 4.614452
v -10.752645 -1.134071 4.633198
v -10.752698 -1.133720 4.634987
v -10.751525 -1.141616 4.638294
v -10.751376 -1.142618 4.636774
v -10.752497 -1.135074 4.631680
v -10.751748 -1.140115 4.639308
v -10.752274 -1.136575 4.630667
v -10.752011 -1.138345 4.639663
v -10.751748 -1.140115 4.630667
v -10.752011 -1.138345 4.630308
v -10.752274 -1.136575 4.639308
v -10.751525 -1.141616 4.631680
v -10.752497 -1.135074 4.638294
v -10.751376 -1.142618 4.633198
v -10.752645 -1.134071 4.636774
v -10.751324 -1.142970 4.634987
v -7.997708 -0.717706 4.623609
v -7.996941 -0.722868 4.620121
v -7.998220 -0.714257 4.628830
v -8.000402 -0.713340 4.634988
v -8.000291 -0.714088 4.631201
v -8.028814 -0.680728 4.633162
v -8.028868 -0.680371 4.634988
v -7.997711 -0.717707 4.646364
v -7.998220 -0.714257 4.641145
v -7.996944 -0.722868 4.649851
v -8.089437 -0.726566 4.634988
v -8.089326 -0.727314 4.638775
v -8.071734 -0.687104 4.636813
v -8.071787 -0.686746 4.634988
v -7.994367 -0.740215 4.646364
v -7.995134 -0.735050 4.649851
v -7.993852 -0.743664 4.641145
v -8.000291 -0.714088 4.638775
v -8.028814 -0.680728 4.636813
v -7.994364 -0.740214 4.623609
v -7.993852 -0.743664 4.628830
v -7.995131 -0.735050 4.620121
v -8.089326 -0.727314 4.631201
v -8.071734 -0.687104 4.633162
v -7.997482 -0.733002 4.619650
v -7.998038 -0.729256 4.618897
v -7.996036 -0.728959 4.618897
v -8.086516 -0.746228 4.619650
v -7.995784 -0.744427 4.631201
v -8.084819 -0.757653 4.631201
v -7.995674 -0.745172 4.634988
v -7.993672 -0.744875 4.634988
v -7.995784 -0.744427 4.638775
v -8.084819 -0.757653 4.638775
v -7.997482 -0.733002 4.650322
v -8.086516 -0.746228 4.650322
v -7.998038 -0.729256 4.651078
v -7.996036 -0.728959 4.651078
v -7.998594 -0.725510 4.650322
v -8.087629 -0.738736 4.650322
v -7.998400 -0.713043 4.634988
v -7.998594 -0.725510 4.619650
v -8.087629 -0.738736 4.619650
v -8.087072 -0.742482 4.618897
v -8.087072 -0.742482 4.651078
v -8.084708 -0.758398 4.634988
v -10.752011 -1.138345 4.638567
v -10.752011 -1.138345 4.636922
v -10.752011 -1.138345 4.634987
v -10.752011 -1.138345 4.633049
v -10.752011 -1.138345 4.631408
v -7.996036 -0.728959 4.622673
v -7.996036 -0.728959 4.628321
v -7.996036 -0.728959 4.634988
v -7.996036 -0.728959 4.641652
v -7.996036 -0.728959 4.647303
v -8.064016 -0.739057 4.687873
v -8.064285 -0.737252 4.687511
v -8.020828 -0.734487 4.582464
v -8.021097 -0.732681 4.582100
v -8.021097 -0.732681 4.687873
v -8.020828 -0.734487 4.687511
v -8.013379 -0.784635 4.636813
v -8.013326 -0.784995 4.634988
v -8.021365 -0.730876 4.582464
v -8.064013 -0.739057 4.582100
v -8.064281 -0.737251 4.582464
v -8.021365 -0.730876 4.687511
v -8.063748 -0.740863 4.687511
v -8.056299 -0.791010 4.636813
v -8.056246 -0.791371 4.634988
v -8.013379 -0.784635 4.633162
v -8.056299 -0.791010 4.633162
v -8.063745 -0.740862 4.582464
vt 0.000000 0.000000
vt 0.000000 0.000000
vt 0.000000 0.000000
vt 0.000000 0.000000
vt 0.000000 0.000000
vt 0.000000 0.000000
vt 0.000000 0.000000
vt 0.000000 0.000000
vt 0.000000 0.000000
vt 0.000000 0.000000
vt 0.000000 0.000000
vt 0.000000 0.000000
vt 0.000000 0.000000
vt 0.000000 0.000000
vt 0.000000 0.000000
vt 0.000000 0.000000
vt 0.000000 0.000000
vt 0.000000 0.000000
vt 0.000000 0.000000
vt 0.000000 0.000000
vt 0.000000 0.000000
vt 0.000000 0.000000
vt 0.000000 0.000000
vt 0.000000 0.000000
vt 0.000000 0.000000
vt 0.000000 0.000000
vt 0.000000 0.000000
vt 0.000000 0.000000
vt 0.000000 0.000000
vt 0.000000 0.000000
vt 0.000000 0.000000
vt 0.000000 0.000000
vt 0.000000 0.000000
vt 0.000000 0.000000
vt 0.000000 0.000000
vt 0.000000 0.000000
vt 0.000000 0.000000
vt 0.000000 0.000000
vt 0.000000 0.000000
vt 0.000000 0.000000
vt 0.000000 0.000000
vt 0.000000 0.000000
vt 0.000000 0.000000
vt 0.000000 0.000000
vt 0.000000 0.000000
vt 0.000000 0.000000
vt 0.000000 0.000000
vt 0.000000 0.000000
vt 0.000000 0.000000
vt 0.000000 0.000000
vt 0.000000 0.000000
vt 0.000000 0.000000
vt 0.000000 0.000000
vt 0.000000 0.000000
vt 0.000000 0.000000
vt 0.000000 0.000000
vt 0.000000 0.000000
vt 0.000000 0.000000
vt 0.000000 0.000000
vt 0.000000 0.000000
vt 0.000000 0.000000
vt 0.000000 0.000000
vt 0.000000 0.000000
vt 0.000000 0.000000
vt 0.000000 0.000000
vt 0.000000 0.000000
vt 0.000000 0.000000
vt 0.000000 0.000000
vt 0.000000 0.000000
vt 0.000000 0.000000
vt 0.000000 0.000000
vt 0.000000 0.000000
vt 0.000000 0.000000
vt 0.000000 0.000000
vt 0.000000 0.000000
vt 0.000000 0.000000
vt 0.000000 0.000000
vt 0.000000 0.000000
vt 0.000000 0.000000
vt 0.000000 0.000000
vt 0.000000 0.000000
vt 0.000000 0.000000
vt 0.000000 0.000000
vt 0.000000 0.000000
vt 0.000000 0.000000
vt 0.000000 0.000000
vt 0.000000 0.000000
vt 0.000000 0.000000
vt 0.000000 0.000000
vt 0.000000 0.000000
vt 0.000000 0.000000
vt 0.000000 0.000000
vt 0.000000 0.000000
vt 0.000000 0.000000
vt 0.000000 0.000000
vt 0.000000 0.000000
vt 0.000000 0.000000
vt 0.000000 0.000000
vt 0.000000 0.000000
vt 0.000000 0.000000
vt 0.000000 0.000000
vt 0.000000 0.000000
vt 0.000000 0.000000
vt 0.000000 0.000000
vt 0.000000 0.000000
vt 0.000000 0.000000
vt 0.000000 0.000000
vt 0.000000 0.000000
vt 0.000000 0.000000
vt 0.000000 0.000000
vt 0.000000 0.000000
vt 0.000000 0.000000
vt 0.000000 0.000000
vt 0.000000 0.000000
vt 0.000000 0.000000
vt 0.000000 0.000000
vt 0.000000 0.000000
vt 0.000000 0.000000
vt 0.000000 0.000000
vt 0.000000 0.000000
vt 0.000000 0.000000
vt 0.000000 0.000000
vt 0.000000 0.000000
vt 0.000000 0.000000
vt 0.000000 0.000000
vt 0.000000 0.000000
vt 0.000000 0.000000
vt 0.000000 0.000000
vt 0.000000 0.000000
vt 0.000000 0.000000
vt 0.000000 0.000000
vt 0.000000 0.000000
vt 0.000000 0.000000
vt 0.000000 0.000000
vt 0.000000 0.000000
vt 0.000000 0.000000
vt 0.000000 0.000000
vt 0.000000 0.000000
vn 0.0287 -0.1933 -0.9807
vn 0.0287 -0.1928 -0.9808
vn 0.0286 -0.1928 -0.9808
vn 0.0816 -0.5494 -0.8316
vn 0.1222 -0.8225 -0.5555
vn 0.1221 -0.8223 -0.5559
vn 0.1441 -0.9701 -0.1953
vn 0.1441 -0.9702 0.1950
vn 0.1441 -0.9701 0.1953
vn 0.1222 -0.8224 0.5556
vn 0.0816 -0.5494 0.8316
vn 0.0288 -0.1932 0.9807
vn 0.0289 -0.1934 0.9807
vn 0.0287 -0.1933 0.9807
vn -0.0285 0.1934 0.9807
vn -0.0286 0.1932 0.9807
vn -0.0287 0.1933 0.9807
vn -0.0816 0.5496 0.8314
vn -0.1222 0.8224 0.5556
vn -0.1222 0.8225 0.5555
vn -0.1442 0.9702 0.1950
vn -0.1441 0.9701 0.1951
vn -0.1441 0.9702 -0.1950
vn -0.1222 0.8225 -0.5554
vn -0.1222 0.8223 -0.5557
vn -0.0816 0.5496 -0.8314
vn -0.0286 0.1928 -0.9808
vn -0.0287 0.1933 -0.9807
vn 0.5513 -0.0852 0.8300
vn 0.4052 0.8993 -0.1647
vn 0.5513 -0.0850 -0.8300
vn 0.6305 -0.6177 0.4701
vn 0.4237 0.7743 0.4701
vn 0.5028 0.2416 -0.8300
vn 0.6490 -0.7427 -0.1651
vn 0.5027 0.2417 0.8300
vn 0.4237 0.7743 -0.4701
vn 0.5961 -0.3869 -0.7035
vn 0.5961 -0.3866 0.7037
vn 0.4051 0.8992 0.1652
vn 0.6490 -0.7427 0.1651
vn 0.4579 0.5433 0.7036
vn 0.4579 0.5433 -0.7036
vn 0.6304 -0.6176 -0.4703
vn -0.3741 0.9077 -0.1898
vn -0.1153 -0.8339 0.5397
vn -0.3527 0.7644 -0.5398
vn -0.1547 -0.5686 0.8080
vn -0.3133 0.4992 -0.8079
vn -0.2061 -0.2222 0.9530
vn -0.2061 -0.2225 -0.9529
vn -0.2619 0.1530 -0.9529
vn -0.2618 0.1527 0.9530
vn -0.1547 -0.5690 -0.8077
vn -0.3133 0.4992 0.8079
vn -0.1153 -0.8339 -0.5398
vn -0.3527 0.7644 0.5397
vn -0.0940 -0.9774 -0.1895
vn -0.3740 0.9078 0.1896
vn -0.0940 -0.9774 0.1896
vn 0.7527 0.6498 -0.1058
vn -0.1222 0.8224 0.5557
vn -0.9091 0.4029 0.1058
vn 0.1222 -0.8224 0.5557
vn -0.0077 0.0521 0.9986
vn -0.9091 0.4030 -0.1058
vn 0.0287 -0.1932 -0.9807
vn 0.0285 -0.1928 -0.9808
vn 0.1441 -0.9701 -0.1954
vn 0.1442 -0.9701 -0.1955
vn 0.1442 -0.9701 0.1953
vn 0.1442 -0.9701 0.1950
vn 0.1441 -0.9700 0.1955
vn 0.0285 -0.1931 0.9808
vn 0.0288 -0.1931 0.9807
vn -0.0287 0.1931 0.9808
vn -0.0289 0.1933 0.9807
vn -0.0287 0.1930 0.9808
vn -0.0285 0.1932 0.9808
vn -0.1440 0.9702 0.1950
vn -0.1442 0.9701 0.1950
vn -0.1440 0.9702 0.1951
vn -0.1439 0.9702 -0.1949
vn -0.1441 0.9701 -0.1951
vn -0.1440 0.9702 -0.1950
vn -0.1443 0.9702 -0.1948
vn -0.0286 0.1931 -0.9808
vn -0.0287 0.1931 -0.9808
vn -0.0285 0.1930 -0.9808
vn -0.0285 0.1928 -0.9808
vn -0.1442 0.9702 0.1949
vn -0.0283 0.1935 0.9807
vn 0.0290 -0.1934 0.9807
vn 0.1442 -0.9701 -0.1950
vn 0.0286 -0.1933 -0.9807
vn -0.1441 0.9701 -0.1952
vn -0.0077 0.0521 -0.9986
vn 0.7527 0.6498 0.1058
vn -0.9891 -0.1470 0.0000
vn -0.9892 -0.1468 0.0002
vn -0.9892 -0.1468 0.0001
vn -0.9891 -0.1471 0.0001
vn -0.9892 -0.1466 0.0003
vn -0.9892 -0.1466 0.0001
vn -0.9892 -0.1468 0.0000
vn -0.9891 -0.1469 0.0000
vn -0.9892 -0.1469 0.0000
vn -0.9891 -0.1471 -0.0000
vn -0.9892 -0.1467 -0.0000
vn -0.9891 -0.1469 -0.0001
vn -0.9891 -0.1471 -0.0001
vn -0.9892 -0.1467 -0.0001
vn -0.9891 -0.1469 -0.0002
vn -0.9891 -0.1474 0.0000
vn -0.9892 -0.1464 -0.0003
vn 0.9891 0.1470 -0.0000
vn 0.9891 0.1469 -0.0000
vn 0.9892 0.1469 -0.0000
vn 0.9891 0.1469 0.0002
vn 0.9892 0.1469 0.0001
vn 0.9891 0.1470 0.0001
vn 0.9892 0.1468 0.0003
vn 0.9891 0.1469 0.0001
vn 0.9892 0.1469 0.0003
vn 0.9892 0.1468 -0.0001
vn 0.9891 0.1471 0.0000
vn -0.8464 -0.0189 0.5321
vn 0.8464 0.0186 -0.5322
vn 0.8464 0.0185 0.5322
vn 0.9090 -0.4030 0.1059
vn 0.0287 -0.1930 0.9808
vn 0.1441 -0.9702 0.1949
vn 0.1441 -0.9702 -0.1949
vn 0.0287 -0.1931 -0.9808
vn 0.0077 -0.0521 0.9986
vn -0.8153 -0.2282 0.5321
vn 0.8153 0.2283 -0.5322
vn 0.1467 -0.9878 0.0527
vn -0.7527 -0.6498 0.1059
vn -0.1467 0.9878 -0.0527
vn 0.9091 -0.4030 -0.1059
vn 0.8153 0.2283 0.5322
vn -0.7527 -0.6498 -0.1059
vn -0.8154 -0.2279 -0.5322
vn 0.1467 -0.9878 -0.0527
vn -0.8464 -0.0189 -0.5322
vn -0.1467 0.9878 0.0527
vn 0.0077 -0.0521 -0.9986
g Arrow.001_Arrow.001_ArrowWings
usemtl ArrowWings
f 104/104/127 109/109/127 121/121/127 122/122/127
f 90/90/128 89/89/128 123/123/128 124/124/128
f 99/99/129 101/101/129 125/125/129 126/126/129
f 95/95/130 97/97/130 127/127/130 128/128/130
f 129/129/88 124/124/88 130/130/88 131/131/88
f 125/125/78 132/132/78 122/122/78 121/121/78
f 126/126/131 125/125/131 121/121/131 133/133/131
f 128/128/132 127/127/132 134/134/132 135/135/132
f 136/136/133 128/128/133 135/135/133 137/137/133
f 124/124/134 123/123/134 138/138/134 130/130/134
f 97/97/135 98/98/135 134/134/135 127/127/135
f 109/109/136 100/100/136 133/133/136 121/121/136
f 106/106/137 90/90/137 124/124/137 129/129/137
f 100/100/138 99/99/138 126/126/138 133/133/138
f 98/98/139 110/110/139 135/135/139 134/134/139
f 107/107/140 106/106/140 129/129/140 131/131/140
f 93/93/141 95/95/141 128/128/141 136/136/141
f 101/101/142 103/103/142 132/132/142 125/125/142
f 110/110/143 94/94/143 137/137/143 135/135/143
f 92/92/144 108/108/144 130/130/144 138/138/144
f 89/89/145 92/92/145 138/138/145 123/123/145
f 108/108/146 107/107/146 131/131/146 130/130/146
f 103/103/147 104/104/147 122/122/147 132/132/147
f 94/94/148 93/93/148 136/136/148 137/137/148
