# Blender v2.91.0 OBJ File: 'test.blend'
# www.blender.org
mtllib Eyebrows.mtl
o Eyebrows
v -0.326952 0.059280 5.109460
v -0.331907 0.043873 5.114151
v -0.325044 0.044336 5.117553
v -0.324753 0.060529 5.111019
v -0.320990 0.039692 5.099332
v -0.308331 0.036780 5.102150
v -0.311729 0.027123 5.106559
v -0.321203 0.028178 5.104390
v -0.316486 0.007037 5.112888
v -0.323673 0.008974 5.111007
v -0.319678 -0.010055 5.117455
v -0.324641 -0.009983 5.117307
v -0.318830 -0.027787 5.121642
v -0.321729 -0.028038 5.123186
v -0.313232 -0.044417 5.125568
v -0.315744 -0.045477 5.127305
v -0.304266 -0.058996 5.128443
v -0.306799 -0.060340 5.129776
v -0.288644 -0.072706 5.131118
v -0.293216 -0.074355 5.132194
v -0.278890 -0.081113 5.130769
v -0.282994 -0.082891 5.131702
v -0.262562 -0.090943 5.129121
v -0.267292 -0.091184 5.129557
v -0.319310 0.067772 5.103545
v -0.321031 0.064914 5.102722
v -0.305466 0.049413 5.096543
v -0.315990 0.053428 5.096152
v -0.328442 0.041018 5.105519
v -0.329952 0.030269 5.110316
v -0.330251 0.011064 5.115185
v -0.330862 -0.008984 5.120320
v -0.324551 -0.028259 5.125832
v -0.317612 -0.046410 5.130339
v -0.305884 -0.061477 5.132807
v -0.291753 -0.074665 5.134141
v -0.281120 -0.082498 5.132834
v -0.266169 -0.091527 5.130333
v -0.315329 0.060470 5.093784
v -0.305759 0.059435 5.092516
v -0.324589 0.055455 5.100478
v -0.317685 0.063344 5.098049
v -0.332869 0.030157 5.117573
v -0.326494 0.030484 5.121983
v -0.333829 0.012097 5.120874
v -0.328857 0.013779 5.125026
v -0.331845 -0.008540 5.125684
v -0.326714 -0.009743 5.129898
v -0.324678 -0.028227 5.130128
v -0.321337 -0.028962 5.133697
v -0.315367 -0.046457 5.133060
v -0.312612 -0.047078 5.135542
v -0.304773 -0.061105 5.134497
v -0.302150 -0.060815 5.136852
v -0.290286 -0.074537 5.136049
v -0.286890 -0.074329 5.137815
v -0.278778 -0.082912 5.134405
v -0.275184 -0.083249 5.135430
v -0.264795 -0.091236 5.131551
v -0.261607 -0.091625 5.132396
v -0.313059 0.065960 5.095429
v -0.259722 -0.092759 5.130789
v -0.319256 0.132384 5.107424
v -0.317329 0.130789 5.109090
v -0.314204 0.147038 5.114732
v -0.320854 0.148728 5.111274
v -0.309373 0.149732 5.096318
v -0.307149 0.161279 5.100730
v -0.297672 0.160443 5.102893
v -0.296376 0.150099 5.099015
v -0.305535 0.180922 5.106287
v -0.298095 0.181416 5.108106
v -0.302504 0.199964 5.111514
v -0.297639 0.199003 5.111689
v -0.295850 0.217291 5.116421
v -0.293074 0.216350 5.114909
v -0.286316 0.233312 5.119654
v -0.284105 0.231657 5.117956
v -0.274457 0.246104 5.121325
v -0.272285 0.244192 5.120080
v -0.258249 0.257067 5.123050
v -0.254141 0.254460 5.122122
v -0.246466 0.263254 5.122167
v -0.242831 0.260628 5.121319
v -0.229400 0.267961 5.119645
v -0.224826 0.266715 5.119250
v -0.314671 0.125276 5.101059
v -0.313582 0.122181 5.102073
v -0.296248 0.136817 5.094131
v -0.307376 0.135113 5.093891
v -0.316908 0.150321 5.102523
v -0.316112 0.161397 5.106710
v -0.312375 0.180463 5.110530
v -0.308764 0.200466 5.114572
v -0.298542 0.218270 5.119037
v -0.287935 0.234773 5.122593
v -0.273324 0.247192 5.124300
v -0.256741 0.257181 5.125017
v -0.244715 0.262559 5.123328
v -0.228231 0.268114 5.120442
v -0.298640 0.126908 5.090661
v -0.308221 0.127939 5.091932
v -0.316194 0.135127 5.098270
v -0.311087 0.125874 5.096327
v -0.312717 0.161105 5.118388
v -0.318906 0.162516 5.113935
v -0.311530 0.178043 5.120510
v -0.316068 0.180523 5.116246
v -0.304506 0.200862 5.124086
v -0.309783 0.200530 5.119914
v -0.295196 0.218695 5.126869
v -0.298650 0.218493 5.123328
v -0.282885 0.234678 5.127779
v -0.285727 0.234487 5.125316
v -0.269793 0.245964 5.128395
v -0.272294 0.246686 5.126010
v -0.252048 0.256044 5.128703
v -0.255325 0.256885 5.126904
v -0.238746 0.262190 5.125915
v -0.242327 0.262536 5.124857
v -0.223737 0.267371 5.122522
v -0.226931 0.267597 5.121677
v -0.307123 0.122197 5.093874
v -0.221664 0.267996 5.120869
vt 0.072100 0.560500
vt 0.125800 0.584900
vt 0.124400 0.599700
vt 0.062300 0.578200
vt 0.158100 0.510600
vt 0.169200 0.498000
vt 0.231000 0.508800
vt 0.222900 0.527000
vt 0.323200 0.521400
vt 0.318200 0.537800
vt 0.423800 0.524900
vt 0.421800 0.538200
vt 0.535300 0.525700
vt 0.538900 0.538300
vt 0.652700 0.527900
vt 0.658500 0.541700
vt 0.735900 0.518800
vt 0.737000 0.532200
vt 0.807300 0.512600
vt 0.813200 0.521500
vt 0.872400 0.502500
vt 0.875600 0.508200
vt 0.947000 0.481100
vt 0.946300 0.486000
vt 0.026100 0.532700
vt 0.043100 0.524100
vt 0.102600 0.473300
vt 0.098800 0.488700
vt 0.143000 0.553800
vt 0.214700 0.562300
vt 0.312400 0.561100
vt 0.419200 0.561000
vt 0.541500 0.555100
vt 0.662800 0.555500
vt 0.738000 0.545300
vt 0.818700 0.529600
vt 0.882400 0.516800
vt 0.953800 0.492000
vt 0.060300 0.471400
vt 0.055600 0.450100
vt 0.088200 0.528900
vt 0.053100 0.494600
vt 0.211900 0.589900
vt 0.217800 0.602200
vt 0.317700 0.586100
vt 0.326000 0.599100
vt 0.423700 0.584000
vt 0.427100 0.601200
vt 0.542900 0.574400
vt 0.540300 0.588400
vt 0.667600 0.565100
vt 0.676300 0.578400
vt 0.738700 0.553800
vt 0.743600 0.565600
vt 0.825100 0.540500
vt 0.830600 0.548000
vt 0.886500 0.525200
vt 0.889700 0.529600
vt 0.955300 0.497100
vt 0.959100 0.500600
vt 0.038900 0.481100
vt 0.965700 0.490600
vt 0.919100 0.227400
vt 0.928000 0.244400
vt 0.865900 0.265400
vt 0.865300 0.251800
vt 0.832200 0.176700
vt 0.767600 0.194000
vt 0.759500 0.175100
vt 0.821400 0.164200
vt 0.672300 0.204100
vt 0.667400 0.187500
vt 0.568800 0.205700
vt 0.566900 0.191200
vt 0.451400 0.205900
vt 0.455400 0.193500
vt 0.331300 0.209100
vt 0.337300 0.194800
vt 0.253700 0.198400
vt 0.254800 0.184500
vt 0.177400 0.187200
vt 0.183200 0.178600
vt 0.115000 0.173600
vt 0.118300 0.168000
vt 0.043800 0.151500
vt 0.044000 0.146400
vt 0.947700 0.191600
vt 0.964700 0.199500
vt 0.887900 0.139500
vt 0.891400 0.155400
vt 0.847700 0.220500
vt 0.775600 0.228800
vt 0.677600 0.228100
vt 0.571000 0.227200
vt 0.449000 0.221700
vt 0.327500 0.221400
vt 0.252700 0.211000
vt 0.171900 0.195200
vt 0.108400 0.182300
vt 0.037600 0.157100
vt 0.934900 0.116400
vt 0.930500 0.137900
vt 0.902400 0.195700
vt 0.937200 0.162300
vt 0.772500 0.268200
vt 0.778300 0.256800
vt 0.664200 0.265400
vt 0.672500 0.252700
vt 0.563200 0.267300
vt 0.567000 0.251600
vt 0.449800 0.254800
vt 0.447600 0.241400
vt 0.313700 0.244700
vt 0.322800 0.230800
vt 0.246700 0.231600
vt 0.252100 0.219400
vt 0.159800 0.213600
vt 0.165300 0.206200
vt 0.100800 0.195000
vt 0.104100 0.190700
vt 0.031700 0.165800
vt 0.035800 0.162000
vt 0.951900 0.148200
vt 0.025800 0.155100
vn -0.4992 0.3625 0.7870
vn 0.1264 -0.4228 -0.8974
vn 0.1651 -0.3359 -0.9273
vn 0.1090 -0.2984 -0.9482
vn -0.1615 -0.2829 -0.9455
vn -0.4254 -0.3425 -0.8377
vn -0.3490 -0.3688 -0.8615
vn -0.3491 -0.3688 -0.8615
vn -0.1671 -0.3456 -0.9234
vn -0.1668 -0.1483 -0.9748
vn -0.1428 -0.0455 -0.9887
vn -0.7319 0.6807 0.0314
vn 0.0337 -0.3250 -0.9451
vn -0.6120 -0.2800 -0.7396
vn -0.5764 -0.1957 -0.7934
vn -0.5178 -0.2213 -0.8264
vn -0.5164 -0.3641 -0.7751
vn -0.6672 -0.3953 -0.6313
vn -0.7559 -0.5740 -0.3148
vn -0.7035 -0.6982 0.1330
vn -0.4874 -0.6810 0.5464
vn -0.3426 -0.7562 0.5575
vn -0.1274 -0.3457 -0.9297
vn -0.9194 0.1532 -0.3623
vn -0.7745 0.4066 -0.4846
vn -0.7745 0.4067 -0.4846
vn -0.5004 0.2774 0.8201
vn -0.6125 0.1982 0.7652
vn -0.6371 0.1078 0.7632
vn -0.6831 -0.0662 0.7273
vn -0.7083 -0.2655 0.6541
vn -0.6264 -0.4000 0.6691
vn -0.4767 -0.4561 0.7515
vn -0.3090 -0.5889 0.7468
vn -0.2624 -0.6758 0.6888
vn -0.6141 0.5159 -0.5973
vn -0.0697 -0.8010 -0.5946
vn -0.9294 -0.0298 -0.3678
vn -0.8937 -0.0670 -0.4435
vn -0.9233 -0.1203 -0.3648
vn -0.9338 -0.3461 -0.0903
vn -0.8984 -0.3460 0.2703
vn -0.6951 -0.4484 0.5619
vn -0.6091 -0.5984 0.5204
vn -0.4813 -0.7424 0.4660
vn -0.3850 -0.7894 0.4782
vn -0.5564 -0.0668 -0.8282
vn -0.6025 0.0494 -0.7966
vn -0.2836 0.3809 -0.8801
vn -0.2050 -0.8883 0.4111
vn -0.5590 -0.2076 0.8028
vn 0.2056 0.3390 -0.9180
vn 0.2268 0.2434 -0.9430
vn 0.1639 0.2160 -0.9625
vn -0.1036 0.2586 -0.9604
vn -0.3529 0.3799 -0.8550
vn -0.2747 0.3887 -0.8795
vn -0.0951 0.3209 -0.9423
vn -0.1396 0.1268 -0.9821
vn -0.1376 0.0259 -0.9901
vn -0.8564 -0.5118 0.0679
vn 0.0948 0.2591 -0.9612
vn -0.5441 0.3606 -0.7576
vn -0.5273 0.2682 -0.8062
vn -0.4668 0.2787 -0.8393
vn -0.4349 0.4212 -0.7959
vn -0.5707 0.4908 -0.6583
vn -0.6211 0.6996 -0.3531
vn -0.5410 0.8367 0.0857
vn -0.3348 0.8004 0.4973
vn -0.1785 0.8474 0.5001
vn -0.0574 0.3122 -0.9483
vn -0.9329 0.0239 -0.3593
vn -0.8441 -0.2628 -0.4673
vn -0.5419 -0.1218 0.8316
vn -0.6358 -0.0246 0.7715
vn -0.6414 0.0701 0.7640
vn -0.6500 0.2468 0.7187
vn -0.6334 0.4422 0.6351
vn -0.5260 0.5584 0.6414
vn -0.5261 0.5584 0.6414
vn -0.3662 0.5841 0.7244
vn -0.1766 0.6838 0.7079
vn -0.1163 0.7578 0.6421
vn -0.7109 -0.4094 -0.5718
vn 0.0959 0.7703 -0.6304
vn 0.0960 0.7703 -0.6304
vn -0.9043 0.2032 -0.3754
vn -0.8620 0.2277 -0.4528
vn -0.8792 0.2903 -0.3779
vn -0.8417 0.5277 -0.1143
vn -0.8044 0.5410 0.2454
vn -0.8044 0.5411 0.2454
vn -0.5828 0.6114 0.5353
vn -0.4680 0.7395 0.4839
vn -0.3109 0.8496 0.4260
vn -0.2055 0.8717 0.4449
vn -0.5345 0.1382 -0.8338
vn -0.6038 0.0326 -0.7965
vn -0.3616 -0.3600 -0.8600
vn -0.0146 0.9310 0.3647
g Eyebrows_Eyebrows_Eyebrows
usemtl Eyebrows
s off
f 1/1/1 2/2/1 3/3/1 4/4/1
f 5/5/2 6/6/2 7/7/2 8/8/2
f 8/8/3 7/7/3 9/9/3 10/10/3
f 10/10/4 9/9/4 11/11/4 12/12/4
f 12/12/5 11/11/5 13/13/5 14/14/5
f 14/14/6 13/13/6 15/15/6 16/16/6
f 16/16/7 15/15/8 17/17/7 18/18/8
f 18/18/9 17/17/9 19/19/9 20/20/9
f 20/20/10 19/19/10 21/21/10 22/22/10
f 22/22/11 21/21/11 23/23/11 24/24/11
f 1/1/12 4/4/12 25/25/12 26/26/12
f 27/27/13 6/6/13 5/5/13 28/28/13
f 29/29/14 5/5/14 8/8/14 30/30/14
f 30/30/15 8/8/15 10/10/15 31/31/15
f 31/31/16 10/10/16 12/12/16 32/32/16
f 32/32/17 12/12/17 14/14/17 33/33/17
f 33/33/18 14/14/18 16/16/18 34/34/18
f 34/34/19 16/16/19 18/18/19 35/35/19
f 35/35/20 18/18/20 20/20/20 36/36/20
f 36/36/21 20/20/21 22/22/21 37/37/21
f 37/37/22 22/22/22 24/24/22 38/38/22
f 27/27/23 28/28/23 39/39/23 40/40/23
f 41/41/24 29/29/24 2/2/24 1/1/24
f 41/41/25 1/1/26 26/26/26 42/42/25
f 3/3/27 2/2/27 43/43/27 44/44/27
f 44/44/28 43/43/28 45/45/28 46/46/28
f 46/46/29 45/45/29 47/47/29 48/48/29
f 48/48/30 47/47/30 49/49/30 50/50/30
f 50/50/31 49/49/31 51/51/31 52/52/31
f 52/52/32 51/51/32 53/53/32 54/54/32
f 54/54/33 53/53/33 55/55/33 56/56/33
f 56/56/34 55/55/34 57/57/34 58/58/34
f 58/58/35 57/57/35 59/59/35 60/60/35
f 42/42/36 26/26/36 25/25/36 61/61/36
f 38/38/37 24/24/37 23/23/37 62/62/37
f 2/2/38 29/29/38 30/30/38 43/43/38
f 43/43/39 30/30/39 31/31/39 45/45/39
f 45/45/40 31/31/40 32/32/40 47/47/40
f 47/47/41 32/32/41 33/33/41 49/49/41
f 49/49/42 33/33/42 34/34/42 51/51/42
f 51/51/43 34/34/43 35/35/43 53/53/43
f 53/53/44 35/35/44 36/36/44 55/55/44
f 55/55/45 36/36/45 37/37/45 57/57/45
f 57/57/46 37/37/46 38/38/46 59/59/46
f 28/28/47 5/5/47 29/29/47 41/41/47
f 28/28/48 41/41/48 42/42/48 39/39/48
f 39/39/49 42/42/49 61/61/49 40/40/49
f 59/59/50 38/38/50 62/62/50 60/60/50
f 63/63/51 64/64/51 65/65/51 66/66/51
f 67/67/52 68/68/52 69/69/52 70/70/52
f 68/68/53 71/71/53 72/72/53 69/69/53
f 71/71/54 73/73/54 74/74/54 72/72/54
f 73/73/55 75/75/55 76/76/55 74/74/55
f 75/75/56 77/77/56 78/78/56 76/76/56
f 77/77/57 79/79/57 80/80/57 78/78/57
f 79/79/58 81/81/58 82/82/58 80/80/58
f 81/81/59 83/83/59 84/84/59 82/82/59
f 83/83/60 85/85/60 86/86/60 84/84/60
f 63/63/61 87/87/61 88/88/61 64/64/61
f 89/89/62 90/90/62 67/67/62 70/70/62
f 91/91/63 92/92/63 68/68/63 67/67/63
f 92/92/64 93/93/64 71/71/64 68/68/64
f 93/93/65 94/94/65 73/73/65 71/71/65
f 94/94/66 95/95/66 75/75/66 73/73/66
f 95/95/67 96/96/67 77/77/67 75/75/67
f 96/96/68 97/97/68 79/79/68 77/77/68
f 97/97/69 98/98/69 81/81/69 79/79/69
f 98/98/70 99/99/70 83/83/70 81/81/70
f 99/99/71 100/100/71 85/85/71 83/83/71
f 89/89/72 101/101/72 102/102/72 90/90/72
f 103/103/73 63/63/73 66/66/73 91/91/73
f 103/103/74 104/104/74 87/87/74 63/63/74
f 65/65/75 105/105/75 106/106/75 66/66/75
f 105/105/76 107/107/76 108/108/76 106/106/76
f 107/107/77 109/109/77 110/110/77 108/108/77
f 109/109/78 111/111/78 112/112/78 110/110/78
f 111/111/79 113/113/79 114/114/79 112/112/79
f 113/113/80 115/115/81 116/116/80 114/114/81
f 115/115/82 117/117/82 118/118/82 116/116/82
f 117/117/83 119/119/83 120/120/83 118/118/83
f 119/119/84 121/121/84 122/122/84 120/120/84
f 104/104/85 123/123/85 88/88/85 87/87/85
f 100/100/86 124/124/86 86/86/86 85/85/87
f 66/66/88 106/106/88 92/92/88 91/91/88
f 106/106/89 108/108/89 93/93/89 92/92/89
f 108/108/90 110/110/90 94/94/90 93/93/90
f 110/110/91 112/112/91 95/95/91 94/94/91
f 112/112/92 114/114/93 96/96/92 95/95/93
f 114/114/94 116/116/94 97/97/94 96/96/94
f 116/116/95 118/118/95 98/98/95 97/97/95
f 118/118/96 120/120/96 99/99/96 98/98/96
f 120/120/97 122/122/97 100/100/97 99/99/97
f 90/90/98 103/103/98 91/91/98 67/67/98
f 90/90/99 102/102/99 104/104/99 103/103/99
f 102/102/100 101/101/100 123/123/100 104/104/100
f 122/122/101 121/121/101 124/124/101 100/100/101
